<svg width="12" height="16" viewBox="0 0 12 16" fill="none" xmlns="http://www.w3.org/2000/svg">
<path d="M7.5 8H4.5V6.22222H7.5M7.5 11.5556H4.5V9.77778H7.5M12 4.44444H9.8925C9.555 3.75111 9.09 3.15556 8.5275 2.70222L9.75 1.25333L8.6925 0L7.065 1.92889C6.72 1.83111 6.375 1.77778 6 1.77778C5.625 1.77778 5.28 1.83111 4.9425 1.92889L3.3075 0L2.25 1.25333L3.465 2.70222C2.91 3.15556 2.445 3.75111 2.1075 4.44444H0V6.22222H1.5675C1.53 6.51556 1.5 6.80889 1.5 7.11111V8H0V9.77778H1.5V10.6667C1.5 10.9689 1.53 11.2622 1.5675 11.5556H0V13.3333H2.1075C2.8875 14.9244 4.335 16 6 16C7.665 16 9.1125 14.9244 9.8925 13.3333H12V11.5556H10.4325C10.47 11.2622 10.5 10.9689 10.5 10.6667V9.77778H12V8H10.5V7.11111C10.5 6.80889 10.47 6.51556 10.4325 6.22222H12V4.44444Z" fill="#F5F5F5" fill-opacity="0.8"/>
</svg>
