<svg width="17" height="16" viewBox="0 0 17 16" fill="none" xmlns="http://www.w3.org/2000/svg">
<path d="M8.01065 0C3.59065 0 0.0146484 3.58 0.0146484 8C0.0146484 12.42 3.59065 16 8.01065 16C12.4306 16 16.0146 12.42 16.0146 8C16.0146 3.58 12.4306 0 8.01065 0ZM13.5506 4.8H11.1907C10.9306 3.8 10.5666 2.84 10.0866 1.952C11.5586 2.456 12.7826 3.476 13.5506 4.8ZM8.01465 1.628C8.68265 2.588 9.20265 3.656 9.54265 4.8H6.48665C6.82665 3.656 7.34665 2.588 8.01465 1.628ZM1.82265 9.6C1.69065 9.088 1.61465 8.552 1.61465 8C1.61465 7.448 1.69065 6.912 1.82265 6.4H4.52265C4.45865 6.924 4.41465 7.456 4.41465 8C4.41465 8.544 4.45865 9.076 4.52665 9.6H1.82265ZM2.47465 11.2H4.83465C5.09465 12.2 5.45865 13.16 5.93865 14.052C4.46665 13.548 3.24265 12.524 2.47465 11.2ZM4.83465 4.8H2.47465C3.24265 3.476 4.46665 2.452 5.93865 1.948C5.45865 2.84 5.09465 3.8 4.83465 4.8ZM8.01465 14.372C7.35065 13.412 6.83065 12.344 6.48665 11.2H9.54265C9.19865 12.344 8.67865 13.412 8.01465 14.372ZM9.88665 9.6H6.14265C6.06665 9.076 6.01465 8.544 6.01465 8C6.01465 7.456 6.06665 6.924 6.14265 6.4H9.88665C9.96265 6.924 10.0146 7.456 10.0146 8C10.0146 8.544 9.96265 9.076 9.88665 9.6ZM10.0906 14.048C10.5706 13.156 10.9346 12.2 11.1946 11.2H13.5546C12.7826 12.524 11.5586 13.544 10.0906 14.048ZM11.5027 9.6C11.5667 9.076 11.6146 8.544 11.6146 8C11.6146 7.456 11.5707 6.924 11.5027 6.4H14.2026C14.3346 6.912 14.4146 7.448 14.4146 8C14.4146 8.552 14.3386 9.088 14.2026 9.6H11.5027Z" fill="#F5F5F5" fill-opacity="0.8"/>
</svg>
